<svg width="67" height="12" viewBox="0 0 67 12" fill="none" xmlns="http://www.w3.org/2000/svg">
<path d="M3.8624 11.136C3.35467 11.136 2.94667 10.9819 2.6384 10.6736C2.3392 10.3563 2.12613 9.86213 1.9992 9.1912L0.6528 2.2688C0.634667 2.16 0.6256 2.08293 0.6256 2.0376C0.6256 1.81093 0.698133 1.63867 0.8432 1.5208C0.997333 1.40293 1.20587 1.344 1.4688 1.344C2.0128 1.344 2.33013 1.58427 2.4208 2.0648L3.7128 9.3408C3.74907 9.48587 3.7808 9.5856 3.808 9.64C3.8352 9.68533 3.87147 9.708 3.9168 9.708C4.0256 9.708 4.0936 9.59013 4.1208 9.3544L4.9776 2.84C5.04107 2.36853 5.21333 2.00133 5.4944 1.7384C5.78453 1.47547 6.15173 1.344 6.596 1.344C7.04027 1.344 7.40293 1.47547 7.684 1.7384C7.97413 2.00133 8.15093 2.36853 8.2144 2.84L9.0712 9.3544C9.0984 9.59013 9.1664 9.708 9.2752 9.708C9.32053 9.708 9.3568 9.68533 9.384 9.64C9.4112 9.5856 9.44293 9.48587 9.4792 9.3408L10.7712 2.0648C10.8619 1.58427 11.1792 1.344 11.7232 1.344C11.9861 1.344 12.1901 1.40293 12.3352 1.5208C12.4893 1.63867 12.5664 1.81093 12.5664 2.0376C12.5664 2.08293 12.5573 2.16 12.5392 2.2688L11.1928 9.1912C11.0659 9.86213 10.8483 10.3563 10.54 10.6736C10.2408 10.9819 9.83733 11.136 9.3296 11.136C8.82187 11.136 8.42747 10.9819 8.1464 10.6736C7.86533 10.3653 7.67947 9.8848 7.5888 9.232L6.7864 3.1392C6.76827 3.0032 6.7456 2.908 6.7184 2.8536C6.6912 2.7992 6.6504 2.772 6.596 2.772C6.5416 2.772 6.5008 2.7992 6.4736 2.8536C6.4464 2.908 6.42373 3.0032 6.4056 3.1392L5.6032 9.232C5.51253 9.8848 5.32667 10.3653 5.0456 10.6736C4.76453 10.9819 4.37013 11.136 3.8624 11.136Z" fill="white"/>
<path d="M16.5339 11.136C15.9717 11.136 15.4731 11.0408 15.0379 10.8504C14.6117 10.66 14.2763 10.3971 14.0315 10.0616C13.7957 9.71707 13.6779 9.32267 13.6779 8.8784C13.6779 8.20747 13.9544 7.67253 14.5075 7.2736C15.0696 6.87467 15.8267 6.6752 16.7787 6.6752C17.6037 6.6752 18.2656 6.852 18.7643 7.2056V6.8792C18.7643 6.45307 18.6328 6.12667 18.3699 5.9C18.1069 5.67333 17.7261 5.56 17.2275 5.56C16.484 5.56 15.8448 5.71867 15.3099 6.036C15.0832 6.16293 14.8883 6.2264 14.7251 6.2264C14.5256 6.2264 14.3488 6.13573 14.1947 5.9544C14.0949 5.82747 14.0451 5.696 14.0451 5.56C14.0451 5.33333 14.1629 5.13387 14.3987 4.9616C14.7251 4.72587 15.1376 4.54 15.6363 4.404C16.1349 4.268 16.6608 4.2 17.2139 4.2C18.2656 4.2 19.0907 4.44027 19.6891 4.9208C20.2965 5.39227 20.6003 6.04507 20.6003 6.8792V10.3744C20.6003 10.6101 20.5187 10.796 20.3555 10.932C20.2013 11.068 19.9883 11.136 19.7163 11.136C19.4352 11.136 19.2176 11.0725 19.0635 10.9456C18.9093 10.8187 18.8323 10.6373 18.8323 10.4016V10.252C18.3155 10.8413 17.5493 11.136 16.5339 11.136ZM16.9555 9.8848C17.5267 9.8848 17.9709 9.79867 18.2883 9.6264C18.6147 9.44507 18.7779 9.19573 18.7779 8.8784C18.7779 8.5792 18.6147 8.33893 18.2883 8.1576C17.9619 7.97627 17.5267 7.8856 16.9827 7.8856C16.4931 7.8856 16.1123 7.97173 15.8403 8.144C15.5773 8.31627 15.4459 8.56107 15.4459 8.8784C15.4459 9.19573 15.5773 9.44507 15.8403 9.6264C16.1032 9.79867 16.4749 9.8848 16.9555 9.8848ZM26.9861 9.2456C27.1312 9.36347 27.2037 9.50853 27.2037 9.6808C27.2037 9.85307 27.1403 10.0299 27.0133 10.2112C26.8139 10.5013 26.5328 10.728 26.1701 10.8912C25.8075 11.0544 25.3995 11.136 24.9461 11.136C24.2208 11.136 23.6496 10.9411 23.2325 10.5512C22.8245 10.1523 22.6205 9.60827 22.6205 8.9192V5.7368H22.0629C21.7909 5.7368 21.5733 5.67333 21.4101 5.5464C21.2469 5.41947 21.1653 5.25173 21.1653 5.0432C21.1653 4.8256 21.2424 4.65333 21.3965 4.5264C21.5597 4.39947 21.7819 4.336 22.0629 4.336H22.6205V2.2824C22.6205 2.02853 22.7021 1.82907 22.8653 1.684C23.0285 1.53893 23.2461 1.4664 23.5181 1.4664C23.7992 1.4664 24.0168 1.53893 24.1709 1.684C24.3251 1.82907 24.4021 2.02853 24.4021 2.2824V4.336H25.7077C25.9888 4.336 26.2064 4.39947 26.3605 4.5264C26.5237 4.65333 26.6053 4.8256 26.6053 5.0432C26.6053 5.25173 26.5237 5.41947 26.3605 5.5464C26.2064 5.67333 25.9888 5.7368 25.7077 5.7368H24.4021V9.0688C24.4021 9.26827 24.4611 9.42693 24.5789 9.5448C24.7059 9.66267 24.8736 9.7216 25.0821 9.7216C25.2453 9.7216 25.3859 9.69893 25.5037 9.6536C25.6307 9.5992 25.7576 9.51307 25.8845 9.3952C26.1203 9.16853 26.3379 9.0552 26.5373 9.0552C26.6824 9.0552 26.832 9.11867 26.9861 9.2456ZM31.081 11.136C30.1471 11.136 29.4173 10.8685 28.8914 10.3336C28.3746 9.7896 28.1162 9.03707 28.1162 8.076V5.016C28.1162 4.76213 28.1978 4.56267 28.361 4.4176C28.5242 4.27253 28.7418 4.2 29.0138 4.2C29.2949 4.2 29.5125 4.27253 29.6666 4.4176C29.8207 4.56267 29.8978 4.76213 29.8978 5.016V8.076C29.8978 8.5928 30.0338 8.99627 30.3058 9.2864C30.5869 9.57653 30.9767 9.7216 31.4754 9.7216C32.1191 9.7216 32.6178 9.5176 32.9714 9.1096C33.3341 8.7016 33.5154 8.13947 33.5154 7.4232V5.016C33.5154 4.76213 33.597 4.56267 33.7602 4.4176C33.9234 4.27253 34.141 4.2 34.413 4.2C34.6941 4.2 34.9117 4.27253 35.0658 4.4176C35.2199 4.56267 35.297 4.76213 35.297 5.016V10.32C35.297 10.5829 35.2199 10.7869 35.0658 10.932C34.9207 11.068 34.7122 11.136 34.4402 11.136C34.1682 11.136 33.9551 11.0635 33.801 10.9184C33.6469 10.7733 33.5698 10.5739 33.5698 10.32V9.9256C33.2343 10.3427 32.8626 10.6509 32.4546 10.8504C32.0557 11.0408 31.5978 11.136 31.081 11.136ZM37.4354 11.136C37.1543 11.136 36.9367 11.0635 36.7826 10.9184C36.6284 10.7733 36.5514 10.5739 36.5514 10.32V1.4936C36.5514 1.23973 36.6284 1.04027 36.7826 0.895199C36.9367 0.750132 37.1543 0.677599 37.4354 0.677599C37.7074 0.677599 37.925 0.750132 38.0882 0.895199C38.2514 1.04027 38.333 1.23973 38.333 1.4936L38.3466 5.2608C38.6639 4.91627 39.0447 4.65333 39.489 4.472C39.9332 4.29067 40.4047 4.2 40.9034 4.2C42.0276 4.2 42.9071 4.50827 43.5418 5.1248C44.1764 5.73227 44.4938 6.58 44.4938 7.668C44.4938 8.756 44.1719 9.60827 43.5282 10.2248C42.8935 10.8323 42.005 11.136 40.8626 11.136C40.3458 11.136 39.8924 11.0544 39.5026 10.8912C39.1127 10.7189 38.7228 10.4379 38.333 10.048V10.32C38.333 10.5739 38.2514 10.7733 38.0882 10.9184C37.925 11.0635 37.7074 11.136 37.4354 11.136ZM40.5906 9.7216C41.2524 9.7216 41.7692 9.54027 42.141 9.1776C42.5127 8.81493 42.6986 8.31173 42.6986 7.668C42.6986 7.02427 42.5127 6.52107 42.141 6.1584C41.7692 5.79573 41.2524 5.6144 40.5906 5.6144C39.8834 5.6144 39.3303 5.79573 38.9314 6.1584C38.5324 6.52107 38.333 7.02427 38.333 7.668C38.333 8.31173 38.5324 8.81493 38.9314 9.1776C39.3303 9.54027 39.8834 9.7216 40.5906 9.7216ZM49.3268 11.136C48.538 11.136 47.8353 10.9955 47.2188 10.7144C46.6113 10.4243 46.1353 10.0163 45.7908 9.4904C45.4462 8.96453 45.274 8.35707 45.274 7.668C45.274 6.97893 45.4462 6.37147 45.7908 5.8456C46.1353 5.31973 46.6113 4.91627 47.2188 4.6352C47.8353 4.34507 48.538 4.2 49.3268 4.2C50.1156 4.2 50.8137 4.34507 51.4212 4.6352C52.0377 4.91627 52.5182 5.31973 52.8628 5.8456C53.2073 6.37147 53.3796 6.97893 53.3796 7.668C53.3796 8.35707 53.2073 8.96453 52.8628 9.4904C52.5182 10.0163 52.0377 10.4243 51.4212 10.7144C50.8137 10.9955 50.1156 11.136 49.3268 11.136ZM49.3268 9.7216C50.0249 9.7216 50.5734 9.54027 50.9724 9.1776C51.3804 8.81493 51.5844 8.31173 51.5844 7.668C51.5844 7.02427 51.3804 6.52107 50.9724 6.1584C50.5734 5.79573 50.0249 5.6144 49.3268 5.6144C48.6286 5.6144 48.0756 5.79573 47.6676 6.1584C47.2686 6.52107 47.0692 7.02427 47.0692 7.668C47.0692 8.31173 47.2686 8.81493 47.6676 9.1776C48.0756 9.54027 48.6286 9.7216 49.3268 9.7216ZM55.3784 11.136C55.0973 11.136 54.8797 11.0635 54.7256 10.9184C54.5714 10.7733 54.4944 10.5739 54.4944 10.32V5.016C54.4944 4.75307 54.5669 4.5536 54.712 4.4176C54.8661 4.27253 55.0792 4.2 55.3512 4.2C55.6232 4.2 55.8362 4.27253 55.9904 4.4176C56.1445 4.56267 56.2216 4.76213 56.2216 5.016V5.4648C56.5026 5.10213 56.829 4.8256 57.2008 4.6352C57.5816 4.43573 57.9896 4.336 58.4248 4.336H58.724C59.0141 4.336 59.2362 4.39947 59.3904 4.5264C59.5536 4.64427 59.6352 4.81653 59.6352 5.0432C59.6352 5.26987 59.5536 5.44667 59.3904 5.5736C59.2362 5.69147 59.0141 5.7504 58.724 5.7504H58.2616C57.6541 5.7504 57.169 5.94533 56.8064 6.3352C56.4528 6.716 56.276 7.24187 56.276 7.9128V10.32C56.276 10.5739 56.1944 10.7733 56.0312 10.9184C55.868 11.0635 55.6504 11.136 55.3784 11.136ZM62.5933 11.136C62.0311 11.136 61.5325 11.0408 61.0973 10.8504C60.6711 10.66 60.3357 10.3971 60.0909 10.0616C59.8551 9.71707 59.7373 9.32267 59.7373 8.8784C59.7373 8.20747 60.0138 7.67253 60.5669 7.2736C61.129 6.87467 61.8861 6.6752 62.8381 6.6752C63.6631 6.6752 64.325 6.852 64.8237 7.2056V6.8792C64.8237 6.45307 64.6922 6.12667 64.4293 5.9C64.1663 5.67333 63.7855 5.56 63.2869 5.56C62.5434 5.56 61.9042 5.71867 61.3693 6.036C61.1426 6.16293 60.9477 6.2264 60.7845 6.2264C60.585 6.2264 60.4082 6.13573 60.2541 5.9544C60.1543 5.82747 60.1045 5.696 60.1045 5.56C60.1045 5.33333 60.2223 5.13387 60.4581 4.9616C60.7845 4.72587 61.197 4.54 61.6957 4.404C62.1943 4.268 62.7202 4.2 63.2733 4.2C64.325 4.2 65.1501 4.44027 65.7485 4.9208C66.3559 5.39227 66.6597 6.04507 66.6597 6.8792V10.3744C66.6597 10.6101 66.5781 10.796 66.4149 10.932C66.2607 11.068 66.0477 11.136 65.7757 11.136C65.4946 11.136 65.277 11.0725 65.1229 10.9456C64.9687 10.8187 64.8917 10.6373 64.8917 10.4016V10.252C64.3749 10.8413 63.6087 11.136 62.5933 11.136ZM63.0149 9.8848C63.5861 9.8848 64.0303 9.79867 64.3477 9.6264C64.6741 9.44507 64.8373 9.19573 64.8373 8.8784C64.8373 8.5792 64.6741 8.33893 64.3477 8.1576C64.0213 7.97627 63.5861 7.8856 63.0421 7.8856C62.5525 7.8856 62.1717 7.97173 61.8997 8.144C61.6367 8.31627 61.5053 8.56107 61.5053 8.8784C61.5053 9.19573 61.6367 9.44507 61.8997 9.6264C62.1626 9.79867 62.5343 9.8848 63.0149 9.8848Z" fill="black"/>
</svg>
